<svg width="24" height="24" viewBox="0 0 24 24" fill="none" xmlns="http://www.w3.org/2000/svg">
<path d="M23.9374 8.81727C23.7803 8.32424 23.3492 7.97407 22.8393 7.92745L15.9122 7.28934L13.1731 0.785111C12.9711 0.308435 12.5112 -0.00012207 12.0001 -0.00012207C11.489 -0.00012207 11.0291 0.308435 10.8271 0.786226L8.08796 7.28934L1.15981 7.92745C0.650769 7.97519 0.220827 8.32424 0.0628036 8.81727C-0.0952201 9.31029 0.0507184 9.85105 0.435798 10.1919L5.67182 14.8506L4.12784 21.7505C4.01486 22.2578 4.20896 22.7822 4.62388 23.0865C4.84691 23.25 5.10784 23.3332 5.37097 23.3332C5.59785 23.3332 5.82289 23.2712 6.02486 23.1486L12.0001 19.5256L17.9731 23.1486C18.4102 23.4153 18.9612 23.391 19.3752 23.0865C19.7903 22.7813 19.9842 22.2567 19.8713 21.7505L18.3273 14.8506L23.5633 10.1929C23.9484 9.85105 24.0954 9.31122 23.9374 8.81727Z" fill="#FFC107"/>
</svg>
